<svg xmlns="http://www.w3.org/2000/svg" xmlns:xlink="http://www.w3.org/1999/xlink" viewBox="0 0 40 40" enable-background="new 0 0 40 40"><style type="text/css">.st0{clip-path:url(#SVGID_2_);} .st1{fill-rule:evenodd;clip-rule:evenodd;}</style><g id="iconmonstr-instagram-6.psd"><defs><path id="SVGID_1_" d="M0 0h40v40H0z"/></defs><clipPath id="SVGID_2_"><use xlink:href="#SVGID_1_" overflow="visible"/></clipPath><g id="iconmonstr" class="st0"><path id="instagram-6" d="M35.4 0H4.6C2.1 0 0 2.1 0 4.6v30.8C0 37.9 2.1 40 4.6 40h30.8c2.5 0 4.6-2.1 4.6-4.6V4.6C40 2.1 37.9 0 35.4 0zM20 12.3c4.2 0 7.7 3.4 7.7 7.7 0 4.2-3.4 7.7-7.7 7.7s-7.7-3.4-7.7-7.7c0-4.2 3.5-7.7 7.7-7.7zm15 21.2c0 .8-.7 1.5-1.5 1.5h-27c-.8 0-1.5-.7-1.5-1.5V16.7h3.2c-.1.5-.3 1.1-.3 1.6-.1.6-.1 1.1-.1 1.7 0 6.8 5.5 12.3 12.3 12.3S32.3 26.8 32.3 20c0-.6-.1-1.2-.1-1.7-.1-.6-.2-1.1-.3-1.6H35v16.8zm0-23.3c0 .8-.7 1.5-1.5 1.5h-3.6c-.9 0-1.5-.7-1.5-1.5V6.5c-.1-.8.6-1.5 1.4-1.5h3.6c.9 0 1.6.7 1.6 1.5v3.7z" class="st1"/></g></g></svg>